                         WARNING!!! RUSSIAN AUDIO ONLY!!!!!!


An exploration of how the actions of individual lives impact one another in the past, present and future, as one soul is shaped from a killer into a hero, and an act of kindness ripples across centuries to inspire a revolution. 

 Directors: Tom Tykwer, Andy Wachowski 
 Writers: David Mitchell (novel), Lana Wachowski (written for the screen by)
 Stars: Tom Hanks, Halle Berry and Hugh Grant 

MediaInfo 0.7.61
General
Complete name                            : K:tempOblachny.atlas.2012.D.DVDRip.Generalfil.mjjhec.mp4
Format                                   : MPEG-4
Format profile                           : Base Media
Codec ID                                 : isom
File size                                : 626 MiB
Duration                                 : 2h 45mn
Overall bit rate mode                    : Variable
Overall bit rate                         : 531 Kbps
Encoded date                             : UTC 2012-12-12 21:05:55
Tagged date                              : UTC 2012-12-12 21:05:55

Video
ID                                       : 1
Format                                   : AVC
Format/Info                              : Advanced Video Codec
Format profile                           : Baseline@L2.1
Format settings, CABAC                   : No
Format settings, ReFrames                : 3 frames
Codec ID                                 : avc1
Codec ID/Info                            : Advanced Video Coding
Duration                                 : 2h 45mn
Bit rate                                 : 400 Kbps
Maximum bit rate                         : 2 373 Kbps
Width                                    : 640 pixels
Height                                   : 272 pixels
Display aspect ratio                     : 2.35:1
Frame rate mode                          : Constant
Frame rate                               : 25.000 fps
Color space                              : YUV
Chroma subsampling                       : 4:2:0
Bit depth                                : 8 bits
Scan type                                : Progressive
Bits/(Pixel*Frame)                       : 0.092
Stream size                              : 472 MiB (75%)
Writing library                          : x264 core 115 r1937 aa21558
Encoding settings                        : cabac=0 / ref=3 / deblock=0:0:0 / analyse=0x1:0x111 / me=hex / subme=7 / psy=1 / psy_rd=1.00:0.10 / mixed_ref=1 / me_range=16 / chroma_me=1 / trellis=2 / 8x8dct=0 / cqm=0 / deadzone=21,11 / fast_pskip=1 / chroma_qp_offset=-3 / threads=6 / sliced_threads=0 / nr=0 / decimate=1 / interlaced=0 / bluray_compat=0 / constrained_intra=0 / bframes=0 / weightp=0 / keyint=250 / keyint_min=25 / scenecut=40 / intra_refresh=0 / rc_lookahead=40 / rc=2pass / mbtree=1 / bitrate=400 / ratetol=1.0 / qcomp=0.60 / qpmin=0 / qpmax=69 / qpstep=4 / cplxblur=20.0 / qblur=0.5 / ip_ratio=1.40 / aq=1:1.00
Encoded date                             : UTC 2012-12-12 21:05:55
Tagged date                              : UTC 2012-12-12 21:08:13

Audio
ID                                       : 2
Format                                   : AAC
Format/Info                              : Advanced Audio Codec
Format profile                           : LC
Codec ID                                 : 40
Duration                                 : 2h 45mn
Bit rate mode                            : Variable
Bit rate                                 : 128 Kbps
Maximum bit rate                         : 138 Kbps
Channel(s)                               : 2 channels
Channel positions                        : Front: L R
Sampling rate                            : 48.0 KHz
Compression mode                         : Lossy
Stream size                              : 151 MiB (24%)
Encoded date                             : UTC 2012-12-12 21:07:48
Tagged date                              : UTC 2012-12-12 21:08:13


Screenshots: 
http://img585.imageshack.us/img585/2770/oblachnyatlas2012ddvdri.png 
http://img51.imageshack.us/img51/2770/oblachnyatlas2012ddvdri.png 
http://img267.imageshack.us/img267/2770/oblachnyatlas2012ddvdri.png 
http://img33.imageshack.us/img33/2770/oblachnyatlas2012ddvdri.png 
http://img221.imageshack.us/img221/2770/oblachnyatlas2012ddvdri.png 
http://img571.imageshack.us/img571/2770/oblachnyatlas2012ddvdri.png 
http://img560.imageshack.us/img560/2770/oblachnyatlas2012ddvdri.png 
http://img585.imageshack.us/img585/458/oblachnyatlas2012ddvdriu.png